# xmcd CD database file generated by OrangeCD 6.4
#
# Track frame offsets:
#	150
#	12193
#	24707
#	37076
#	52032
#	63703
#	73913
#	90527
#	100965
#	114368
#	125242
#	134562
#	147101
#	157171
#	164019
#	173256
#	186874
#	195309
#	206816
#	216990
#	230294
#	240913
#	252978
#	263951
#	271356
#	285292
#	294182
#	306644
#	320319
#	334424
#
# Disc length: 4586 seconds
#
# Revision: 0
# Processed by: cddbd v1.5.2PL0 Copyright (c) Steve Scherf et al.
# Submitted via: OrangeCD 6.4
#
DISCID=d011e81e
DTITLE=Juha "Watt" Vainio - Pahojen poikien parhaat - 30 alakulttuurin klassikk
DTITLE=oa!
DYEAR=2012
DGENRE=Iskelmä
TTITLE0=Junnu Kaihomieli - Paljaana
TTITLE1=Lenita Laurén - Kersantti
TTITLE2=Junnu Kaihomieli - Keskussairaalassa
TTITLE3=Aino Akti - Iltasatu
TTITLE4=Asko Kamppi - Pohjolan pidot
TTITLE5=Carita - Pillurock
TTITLE6=Junnu Kaihomieli - Lukretsia ja kasanova
TTITLE7=Aino Akti - Lehtimiehen moraali
TTITLE8=Asko Kamppi - Kumi-Roope
TTITLE9=Carita - Oi Jussi
TTITLE10=Aino Akti - Kerrankin tarpeeseen
TTITLE11=Junnu Kaihomieli - Turakainen Thaimaassa
TTITLE12=Junnu Kaihomieli - Aina mielessä
TTITLE13=Aino Akti - Marssi
TTITLE14=Sanna ja Aatu - Sanna
TTITLE15=Junnu Kaihomieli - Saarnaaja
TTITLE16=Lenita Laurén - Syylä
TTITLE17=Aino ja Lenita - Sikermä
TTITLE18=Junnu Kaihomieli - Kun mä kuolen
TTITLE19=Aino Akti - Nakkilassa
TTITLE20=Asko Kamppi - Paksu poika
TTITLE21=Junnu Kaihomieli - Isoäidin kalsarit
TTITLE22=Lenita Laurén - Nousee, laskee
TTITLE23=Junnu Kaihomieli and Ystävät - Kalle-Kustaa
TTITLE24=Carita - Puttepossun nimipäivät
TTITLE25=Lippo Koivujuuri - Pieni mutta tekninen
TTITLE26=Jukka Kortelainen - Roope ja metsästäjän leski
TTITLE27=Aino Akti - Oopperassa
TTITLE28=Junnu Kaihomieli - Sellainen on Hampuri
TTITLE29=Carita - Puhelintyttö laulaa
EXTD=
EXTT0=
EXTT1=
EXTT2=
EXTT3=
EXTT4=
EXTT5=
EXTT6=
EXTT7=
EXTT8=
EXTT9=
EXTT10=
EXTT11=
EXTT12=
EXTT13=
EXTT14=
EXTT15=
EXTT16=
EXTT17=
EXTT18=
EXTT19=
EXTT20=
EXTT21=
EXTT22=
EXTT23=
EXTT24=
EXTT25=
EXTT26=
EXTT27=
EXTT28=
EXTT29=
PLAYORDER=
